Patient4_TMGait_0pt8_01_right_08_EMG.mot
version=1
nRows=26
nColumns=33
inDegrees=no
endheader
time	1LAddLong	2LGlutMax	3LGlutMed	4LIliopsoas	5LSemiMemb	6LBicFemLong	7LRecFem	8LVastMed	9LVastLat	10LGasMed	11LTibAnt	12lTibPost	13LPeroneusLong	14LSol	15LExtDigLong	16LFlexDigLong	17RAddLong	18RGlutMax	19RGlutMed	20RIliopsoas	21RSemiMemb	22RBicFemLong	23RRecFem	24RVastMed	25RVastLat	26RGasMed	27RTibAnt	28RTibPost	29RPeroneusLong	30RSol	31RExtDigLong	32RFlexDigLong
9.903	0.004425	-0.086212	-0.1088	-0.004883	0.03006	0.013733	0.2153	-0.003662	0.043488	-0.032959	-0.019989	-0.002747	0.004578	-0.069427	-0.18509	-0.001526	-0.008698	-0.20386	0.15442	-0.030365	0.023804	-0.027161	-0.012054	-0.083923	0.018463	-0.006104	-0.14725	-0.003815	-0.11475	-0.01297	-0.00824	-0.002899
9.904	-0.002594	-0.041809	-0.037842	-0.005035	0.013275	0.006409	0.2388	0.00351	0.035706	0.030823	0.086365	0.006714	0.4068	-0.040436	0.11169	0.017548	-0.037231	-0.1828	0.17395	-0.028534	0.035248	0.1799	-0.023956	-0.062714	0.024261	-0.010986	-0.36804	-0.001831	0.12009	-0.023651	-0.001678	-0.000153
9.905	0.010223	-0.070496	0.057068	0.006256	0.022125	-0.010529	0.16159	0.00351	0.028534	0.10284	0.13275	-0.000916	0.62561	0.056763	0.62531	0.003662	-0.037689	-0.20996	0.09491	-0.071259	0.19913	0.33341	-0.044556	-0.050201	0.014191	-0.005798	-0.09613	-0.00061	0.24323	-0.1062	-0.002136	-0.009918
9.906	0.005188	-0.071259	0.079956	-0.013123	0.019684	-0.004578	0.17044	0.004272	0.016022	0.1001	0.15823	0.003967	0.080719	0.22995	0.10346	0.004272	-0.01358	-0.21027	0.041809	-0.1207	0.089722	0.25772	0.017395	-0.069885	0.008392	0.000458	-0.16525	0.008087	0.26001	-0.11444	-0.001678	-0.005798
9.907	0.008545	-0.03952	0.022888	0.007019	0.011597	-0.003357	0.21362	0.003204	0.050049	0.11612	0.1062	0.004578	-0.53314	0.14786	-0.30487	-0.02182	0.004425	-0.19821	-0.020447	-0.084534	0.071259	0.14801	-0.017548	-0.087128	-0.012512	-0.009155	-0.23224	-0.001678	0.26596	-0.041351	-0.002289	-0.00351
9.908	0.007629	-0.037231	-0.063934	0.012665	0.017242	-0.005188	0.20142	0.000305	0.084839	0.13077	0.019684	0.007324	0.040588	0.044556	0.066223	-0.004883	0.042877	-0.22736	-0.059662	-0.016479	0.049744	0.13428	-0.006714	-0.080261	-0.002136	-0.025024	0.14099	-0.004883	0.17777	0.11429	-0.001984	0.00061
9.909	0.009003	-0.017395	-0.10284	0.010986	0.017395	0.013275	0.19943	-0.001831	0.11078	0.066071	0.028839	0.007019	0.392	0.043488	-0.28946	-0.005035	0.16663	-0.19318	-0.042877	0.058899	-0.015259	0.1831	0.029755	-0.08194	-0.006256	-0.025787	0.054474	0.008087	0.13184	0.18249	-0.000916	-0.004578
9.91	0.00885	0.013885	-0.050507	-0.009308	0.017395	-0.005188	0.17273	0.003967	0.065765	0.051117	-0.076752	0.004272	0.53665	-0.010223	-0.14053	0.016327	0.21149	-0.19226	-0.045319	0.13092	-0.038452	0.11093	-0.002594	-0.12772	-0.006561	-0.021667	-0.13199	-0.002136	0.1088	0.22629	-0.003052	-0.003662
9.911	0.006561	0.062256	0.10071	-0.042267	0.014038	0.003204	0.12207	0.006561	0.067749	-0.006561	-0.15396	0.003815	0.12772	0.031281	-0.20111	-0.019836	0.19669	-0.16678	-0.15015	0.10407	0.030212	0.044098	-0.022125	-0.14404	-0.002441	-0.017395	0.006714	-0.003052	0.085754	0.24307	-0.002441	0.007019
9.912	0.001831	0.063629	0.12619	-0.011292	0.013733	0.014496	0.12817	-0.007782	0.18204	-0.028992	-0.23636	-0.006256	-0.22797	0.085144	0.042267	-0.018921	0.25787	-0.14542	-0.15457	0.040894	0.095367	-0.01709	-0.002747	-0.17075	0.00351	-0.021057	0.11505	0.001526	0.070038	0.11169	-0.002594	0.006409
9.913	-0.002899	0.085297	0.050659	0.015717	0.011597	0.027466	0.20187	-0.010681	0.15015	-0.036163	-0.16556	0.002747	-0.17868	0.074615	-0.32272	0.014343	0.20233	-0.14236	-0.11688	-0.024567	0.017242	0.005493	-0.06897	-0.19867	0.004272	-0.007324	0.042877	-0.001984	0.098724	0.092163	-0.005341	0.010223
9.914	-0.004272	0.14893	0.090485	0.014038	-0.002289	0.004425	0.25192	-0.007782	0.11566	-0.002136	-0.058746	-0.004883	-0.21896	0.012512	-0.18509	0.001526	0.052795	-0.079803	0.049286	-0.03479	-0.088043	-0.003815	-0.075684	-0.077972	0.006409	-0.019836	0.034485	0.002136	0.12878	0.056152	0.000916	0.00061
9.915	0.004578	0.23392	0.11124	-0.001984	-0.017548	0.007629	0.25467	-0.006104	0.094147	-0.022125	0.032501	-0.005646	0.38437	0.01358	-0.17166	-0.005646	-0.070496	-0.054626	-0.035553	-0.033722	-0.26443	0.058899	-0.081787	-0.12299	0.005798	-0.017242	0.11017	-0.002594	0.22263	0.0177	0.000916	0.005188
9.916	0.006104	0.27725	0.11704	0.022736	-0.029297	-0.034485	0.23117	-0.003967	0.074921	-0.001678	-0.019226	-0.003662	0.0383	-0.055847	-0.18188	-0.022583	-0.13886	-0.04837	-0.1767	-0.003662	-0.085449	0.003662	-0.056305	-0.13016	-0.013428	-0.019531	0.12726	-0.001678	0.20676	0.015106	-0.002136	0.00824
9.917	0.010681	0.27985	0.093384	-0.004578	0.018005	-0.053406	0.26047	-0.005646	0.067291	-0.032043	-0.020447	-0.004272	-0.56076	0	0.043182	0.006561	-0.17716	-0.078583	-0.17334	0.058899	-0.12085	-0.082397	-0.044708	-0.046997	0.002747	-0.016479	0.18677	-0.004883	0.087128	0.013885	-0.002441	0.010529
9.918	0.002747	0.29205	0.002747	-0.006409	0.042572	-0.028534	0.27359	-0.002136	0.05249	-0.070801	0.018616	-0.003815	-0.28854	-0.001831	0.2124	-0.005035	-0.18051	-0.00412	-0.016632	0.10559	-0.24353	-0.071259	0.066681	-0.056458	-0.010223	-0.011597	0.13779	-0.000305	0.096741	-0.023346	0.001221	0.004272
9.919	0.002594	0.31296	-0.015869	0.022888	0.054016	0.026855	0.24918	0.006104	0.072784	-0.03479	0.029602	-0.011749	-0.22415	-0.21668	0.028534	-0.009155	-0.16174	-0.026703	-0.11444	0.093842	-0.19486	-0.027008	0.032043	-0.049896	-0.02533	-0.019989	0.071411	-0.005798	0.02182	-0.022736	0.001526	0.001068
9.92	-0.005493	0.35584	0.000458	0.002289	0.054321	0.009766	0.25528	0.005188	0.052185	-0.046387	0.010834	-0.001984	0.011292	-0.083466	0.025482	-0.00946	-0.13672	-0.053864	-0.13153	0.022278	-0.001831	0.058136	0.10574	0.016479	-0.019379	-0.039673	0.099792	-0.001068	-0.24399	-0.032349	-0.00061	-0.012665
9.921	-0.00412	0.35416	0.064087	-0.001221	-0.004272	0.03067	0.28473	0.001678	0.034332	-0.082245	0.010986	-0.012665	0.15915	0.018616	0.058746	-0.012054	-0.14404	-0.084839	0.11108	-0.066223	0.046997	0.033722	0.059052	0.10956	0.00885	-0.045166	0.13672	-0.003815	-0.43411	-0.05661	-0.000153	0.002594
9.922	-0.011444	0.35339	0.14923	0.005493	-0.037537	-0.001068	0.28519	0.002289	0.032196	-0.11231	0.018463	-0.005951	-0.041504	-0.031433	0.14755	-0.01709	-0.12772	-0.10101	-0.15793	-0.06073	-0.094299	0.17059	0.008698	0.057068	-0.023956	-0.040894	0.16602	-0.00061	-0.72327	-0.10315	-0.002747	-0.004425
9.923	0.018158	0.31372	0.077362	0.000153	-0.083771	-0.047302	0.27496	-0.00412	0.047455	-0.11231	0.024719	-0.004425	-0.06897	-0.1091	0.11612	-0.002747	-0.11932	-0.06134	0.12421	-0.003662	-0.01236	0.14023	-0.059052	0.093231	0.005493	-0.015564	0.084229	-0.003357	-0.19012	-0.061646	-0.000458	-0.005798
9.924	0.065002	0.31509	-0.000916	0.030975	0.094147	-0.031586	0.27924	-0.000458	0.052643	-0.091248	0.037994	-0.012207	-0.08255	0.003815	0.12543	0	-0.092926	-0.063324	0.068207	0.042877	-0.042725	0.2269	-0.10254	0.070953	0.010986	0.025787	-0.001678	-0.00946	0.26138	-0.045013	0.001068	-0.000916
9.925	0.007019	0.31128	0.034637	-0.002747	0.11673	0.020142	0.29404	0.000916	0.039215	-0.084839	0.028687	-0.010681	-0.024719	0.19348	0.14877	-0.009155	-0.050964	-0.083008	0.18845	0.033264	-0.045319	0.54504	-0.078583	0.093536	0.01236	0.012207	0.017242	-0.003815	0.11444	-0.022583	0.001526	-0.032349
9.926	-0.00824	0.30655	0.15671	0.009155	0.051117	0.050507	0.2919	0.003662	0.002899	-0.072174	0.006866	-0.024567	0.052948	0.24902	0.11566	-0.041199	-0.007019	-0.06485	0.20157	-0.039063	-0.11978	0.36346	-0.10757	0.061188	0.015717	-0.013885	0.094299	-0.005341	0.065918	0.018158	0.004272	-0.042419
9.927	0.026398	0.30594	0.027313	0.005341	0.021973	0.06012	0.23636	0.020752	-0.019836	0.015411	0.005646	0.060425	0.11108	-0.21805	0.063477	-0.035706	0.013428	-0.086365	0.1648	-0.072784	-0.085754	0.15106	-0.063629	0.05722	0.030518	-0.020447	0.10254	0.000305	-0.11215	-0.030823	0.00351	-0.046082
9.928	0.011902	0.29862	0.092621	-0.005951	0.036621	0.034332	0.24262	0.018768	0.001068	0.046844	-0.019684	0.026093	0.10635	-0.47394	0.019226	0.065308	-0.017395	-0.05127	-0.002441	-0.12299	0.08255	0.23209	-0.087433	0.048981	0.041199	-0.023804	0.088806	0.00824	-0.29465	-0.033264	0.003815	-0.038147
